<svg xmlns="http://www.w3.org/2000/svg" xmlns:xlink="http://www.w3.org/1999/xlink" width="1000" zoomAndPan="magnify" viewBox="0 0 750 749.999995" height="1000" preserveAspectRatio="xMidYMid meet" version="1.0"><defs><clipPath id="e25efde5fc"><path d="M 100.316406 25.640625 L 649.316406 25.640625 L 649.316406 724.640625 L 100.316406 724.640625 Z M 100.316406 25.640625 " clip-rule="nonzero"/></clipPath></defs><g clip-path="url(#e25efde5fc)"><path fill="#9f9f9f" d="M 574.628906 275.179688 L 574.628906 225.273438 C 574.628906 222.003906 574.550781 218.742188 574.390625 215.476562 C 574.230469 212.214844 573.988281 208.957031 573.667969 205.707031 C 573.347656 202.453125 572.949219 199.210938 572.46875 195.980469 C 571.988281 192.75 571.429688 189.53125 570.792969 186.328125 C 570.15625 183.121094 569.441406 179.9375 568.648438 176.765625 C 567.851562 173.597656 566.980469 170.449219 566.035156 167.324219 C 565.085938 164.195312 564.0625 161.09375 562.960938 158.019531 C 561.859375 154.941406 560.683594 151.894531 559.433594 148.878906 C 558.183594 145.859375 556.859375 142.875 555.464844 139.917969 C 554.066406 136.964844 552.597656 134.050781 551.058594 131.167969 C 549.515625 128.285156 547.90625 125.445312 546.226562 122.640625 C 544.546875 119.839844 542.800781 117.082031 540.984375 114.363281 C 539.171875 111.648438 537.289062 108.976562 535.34375 106.351562 C 533.398438 103.730469 531.386719 101.152344 529.316406 98.628906 C 527.242188 96.101562 525.109375 93.628906 522.914062 91.210938 C 520.722656 88.789062 518.46875 86.421875 516.160156 84.113281 C 513.847656 81.800781 511.484375 79.550781 509.0625 77.355469 C 506.640625 75.164062 504.167969 73.027344 501.644531 70.957031 C 499.117188 68.882812 496.542969 66.875 493.917969 64.929688 C 491.292969 62.980469 488.625 61.101562 485.90625 59.285156 C 483.191406 57.472656 480.433594 55.722656 477.628906 54.042969 C 474.828125 52.363281 471.984375 50.753906 469.105469 49.214844 C 466.222656 47.675781 463.304688 46.207031 460.351562 44.808594 C 457.398438 43.410156 454.414062 42.089844 451.394531 40.839844 C 448.375 39.589844 445.328125 38.414062 442.253906 37.3125 C 439.175781 36.210938 436.074219 35.1875 432.949219 34.238281 C 429.824219 33.289062 426.675781 32.417969 423.503906 31.625 C 420.335938 30.832031 417.148438 30.117188 413.945312 29.476562 C 410.742188 28.839844 407.523438 28.28125 404.289062 27.804688 C 401.058594 27.324219 397.816406 26.921875 394.566406 26.605469 C 391.316406 26.285156 388.058594 26.042969 384.792969 25.882812 C 381.53125 25.722656 378.265625 25.640625 375 25.640625 C 371.730469 25.640625 368.46875 25.722656 365.203125 25.882812 C 361.941406 26.042969 358.683594 26.285156 355.433594 26.605469 C 352.179688 26.921875 348.9375 27.324219 345.707031 27.804688 C 342.476562 28.28125 339.257812 28.839844 336.054688 29.476562 C 332.847656 30.117188 329.660156 30.832031 326.492188 31.625 C 323.324219 32.417969 320.175781 33.289062 317.050781 34.238281 C 313.921875 35.1875 310.820312 36.210938 307.746094 37.3125 C 304.667969 38.414062 301.621094 39.589844 298.605469 40.839844 C 295.585938 42.089844 292.597656 43.410156 289.644531 44.808594 C 286.691406 46.207031 283.773438 47.675781 280.894531 49.214844 C 278.011719 50.753906 275.171875 52.363281 272.367188 54.042969 C 269.566406 55.722656 266.808594 57.472656 264.089844 59.285156 C 261.375 61.101562 258.703125 62.980469 256.078125 64.929688 C 253.457031 66.875 250.878906 68.882812 248.355469 70.957031 C 245.828125 73.027344 243.355469 75.164062 240.933594 77.355469 C 238.515625 79.550781 236.148438 81.800781 233.839844 84.113281 C 231.527344 86.421875 229.277344 88.789062 227.082031 91.210938 C 224.886719 93.628906 222.753906 96.101562 220.683594 98.628906 C 218.609375 101.152344 216.601562 103.730469 214.652344 106.351562 C 212.707031 108.976562 210.828125 111.648438 209.011719 114.363281 C 207.195312 117.082031 205.449219 119.839844 203.769531 122.640625 C 202.089844 125.445312 200.480469 128.285156 198.941406 131.167969 C 197.402344 134.050781 195.933594 136.964844 194.535156 139.917969 C 193.136719 142.875 191.816406 145.859375 190.566406 148.878906 C 189.3125 151.894531 188.140625 154.941406 187.039062 158.019531 C 185.9375 161.09375 184.914062 164.195312 183.964844 167.324219 C 183.015625 170.449219 182.144531 173.597656 181.351562 176.765625 C 180.558594 179.9375 179.839844 183.121094 179.203125 186.328125 C 178.566406 189.53125 178.007812 192.75 177.527344 195.980469 C 177.050781 199.210938 176.648438 202.453125 176.328125 205.707031 C 176.007812 208.957031 175.769531 212.214844 175.609375 215.476562 C 175.449219 218.742188 175.367188 222.003906 175.367188 225.273438 L 175.367188 275.179688 C 174.144531 275.179688 172.917969 275.210938 171.695312 275.269531 C 170.472656 275.332031 169.25 275.421875 168.03125 275.539062 C 166.8125 275.660156 165.597656 275.8125 164.382812 275.992188 C 163.171875 276.171875 161.964844 276.378906 160.765625 276.617188 C 159.5625 276.859375 158.367188 277.125 157.179688 277.425781 C 155.988281 277.722656 154.808594 278.046875 153.636719 278.402344 C 152.464844 278.757812 151.300781 279.144531 150.148438 279.554688 C 148.996094 279.96875 147.851562 280.410156 146.71875 280.878906 C 145.589844 281.347656 144.46875 281.84375 143.359375 282.367188 C 142.253906 282.890625 141.160156 283.441406 140.078125 284.019531 C 139 284.597656 137.933594 285.203125 136.882812 285.832031 C 135.832031 286.460938 134.796875 287.117188 133.777344 287.796875 C 132.757812 288.476562 131.757812 289.183594 130.773438 289.914062 C 129.789062 290.640625 128.824219 291.394531 127.875 292.171875 C 126.929688 292.949219 126.003906 293.75 125.09375 294.574219 C 124.1875 295.394531 123.300781 296.242188 122.433594 297.105469 C 121.566406 297.972656 120.722656 298.859375 119.898438 299.769531 C 119.078125 300.675781 118.277344 301.601562 117.5 302.550781 C 116.722656 303.496094 115.96875 304.464844 115.238281 305.445312 C 114.507812 306.429688 113.804688 307.433594 113.125 308.449219 C 112.441406 309.46875 111.789062 310.503906 111.15625 311.554688 C 110.527344 312.605469 109.925781 313.671875 109.347656 314.753906 C 108.769531 315.832031 108.21875 316.925781 107.695312 318.035156 C 107.171875 319.140625 106.675781 320.261719 106.207031 321.394531 C 105.738281 322.527344 105.296875 323.667969 104.882812 324.820312 C 104.46875 325.976562 104.085938 327.136719 103.730469 328.3125 C 103.375 329.484375 103.046875 330.664062 102.75 331.851562 C 102.453125 333.039062 102.183594 334.234375 101.945312 335.4375 C 101.707031 336.640625 101.496094 337.84375 101.316406 339.058594 C 101.136719 340.269531 100.988281 341.484375 100.867188 342.703125 C 100.746094 343.921875 100.65625 345.144531 100.597656 346.367188 C 100.539062 347.59375 100.507812 348.816406 100.507812 350.042969 L 100.507812 649.488281 C 100.507812 650.714844 100.539062 651.9375 100.597656 653.160156 C 100.65625 654.386719 100.746094 655.605469 100.867188 656.824219 C 100.988281 658.042969 101.136719 659.261719 101.316406 660.472656 C 101.496094 661.683594 101.707031 662.890625 101.945312 664.09375 C 102.183594 665.292969 102.453125 666.488281 102.75 667.675781 C 103.046875 668.867188 103.375 670.046875 103.730469 671.21875 C 104.085938 672.390625 104.46875 673.554688 104.882812 674.707031 C 105.296875 675.863281 105.738281 677.003906 106.207031 678.136719 C 106.675781 679.269531 107.171875 680.386719 107.695312 681.496094 C 108.21875 682.601562 108.769531 683.695312 109.347656 684.777344 C 109.925781 685.859375 110.527344 686.921875 111.15625 687.972656 C 111.789062 689.023438 112.441406 690.058594 113.125 691.078125 C 113.804688 692.097656 114.507812 693.097656 115.238281 694.082031 C 115.96875 695.066406 116.722656 696.03125 117.5 696.980469 C 118.277344 697.925781 119.078125 698.855469 119.898438 699.761719 C 120.722656 700.667969 121.566406 701.554688 122.433594 702.421875 C 123.300781 703.289062 124.1875 704.132812 125.09375 704.957031 C 126.003906 705.777344 126.929688 706.578125 127.875 707.355469 C 128.824219 708.132812 129.789062 708.886719 130.773438 709.617188 C 131.757812 710.347656 132.757812 711.050781 133.777344 711.734375 C 134.796875 712.414062 135.832031 713.070312 136.882812 713.699219 C 137.933594 714.328125 139 714.933594 140.078125 715.507812 C 141.160156 716.085938 142.253906 716.636719 143.359375 717.160156 C 144.46875 717.683594 145.589844 718.183594 146.71875 718.652344 C 147.851562 719.121094 148.996094 719.558594 150.148438 719.972656 C 151.300781 720.386719 152.464844 720.769531 153.636719 721.125 C 154.808594 721.480469 155.988281 721.808594 157.179688 722.105469 C 158.367188 722.402344 159.5625 722.671875 160.765625 722.910156 C 161.964844 723.148438 163.171875 723.359375 164.382812 723.539062 C 165.597656 723.71875 166.8125 723.867188 168.03125 723.988281 C 169.25 724.109375 170.472656 724.199219 171.695312 724.257812 C 172.917969 724.320312 174.144531 724.347656 175.367188 724.347656 L 574.628906 724.347656 C 575.855469 724.347656 577.078125 724.320312 578.304688 724.257812 C 579.527344 724.199219 580.75 724.109375 581.96875 723.988281 C 583.1875 723.867188 584.402344 723.71875 585.613281 723.539062 C 586.824219 723.359375 588.03125 723.148438 589.234375 722.910156 C 590.4375 722.671875 591.632812 722.402344 592.820312 722.105469 C 594.007812 721.808594 595.1875 721.480469 596.359375 721.125 C 597.53125 720.769531 598.695312 720.386719 599.851562 719.972656 C 601.003906 719.558594 602.144531 719.121094 603.277344 718.652344 C 604.410156 718.183594 605.53125 717.683594 606.636719 717.160156 C 607.746094 716.636719 608.839844 716.085938 609.917969 715.507812 C 611 714.933594 612.066406 714.328125 613.117188 713.699219 C 614.167969 713.070312 615.203125 712.414062 616.21875 711.734375 C 617.238281 711.050781 618.242188 710.347656 619.222656 709.617188 C 620.207031 708.886719 621.175781 708.132812 622.121094 707.355469 C 623.066406 706.578125 623.996094 705.777344 624.902344 704.957031 C 625.8125 704.132812 626.699219 703.289062 627.566406 702.421875 C 628.429688 701.554688 629.277344 700.667969 630.097656 699.761719 C 630.921875 698.855469 631.722656 697.925781 632.5 696.980469 C 633.277344 696.03125 634.027344 695.066406 634.757812 694.082031 C 635.488281 693.097656 636.195312 692.097656 636.875 691.078125 C 637.554688 690.058594 638.210938 689.023438 638.839844 687.972656 C 639.46875 686.921875 640.074219 685.859375 640.652344 684.777344 C 641.230469 683.695312 641.78125 682.601562 642.304688 681.496094 C 642.828125 680.386719 643.324219 679.269531 643.792969 678.136719 C 644.261719 677.003906 644.703125 675.863281 645.113281 674.707031 C 645.527344 673.554688 645.910156 672.390625 646.265625 671.21875 C 646.625 670.046875 646.949219 668.867188 647.246094 667.675781 C 647.546875 666.488281 647.8125 665.292969 648.050781 664.09375 C 648.292969 662.890625 648.5 661.683594 648.679688 660.472656 C 648.859375 659.261719 649.011719 658.042969 649.128906 656.824219 C 649.25 655.605469 649.339844 654.386719 649.402344 653.160156 C 649.460938 651.9375 649.492188 650.714844 649.492188 649.488281 L 649.492188 350.042969 C 649.492188 348.816406 649.460938 347.59375 649.402344 346.367188 C 649.339844 345.144531 649.25 343.921875 649.128906 342.703125 C 649.011719 341.484375 648.859375 340.269531 648.679688 339.058594 C 648.5 337.84375 648.292969 336.640625 648.050781 335.4375 C 647.8125 334.234375 647.546875 333.039062 647.246094 331.851562 C 646.949219 330.664062 646.625 329.484375 646.265625 328.3125 C 645.910156 327.136719 645.527344 325.976562 645.113281 324.820312 C 644.703125 323.667969 644.261719 322.527344 643.792969 321.394531 C 643.324219 320.261719 642.828125 319.140625 642.304688 318.035156 C 641.78125 316.925781 641.230469 315.832031 640.652344 314.753906 C 640.074219 313.671875 639.46875 312.605469 638.839844 311.554688 C 638.210938 310.503906 637.554688 309.46875 636.875 308.449219 C 636.195312 307.433594 635.488281 306.429688 634.757812 305.445312 C 634.027344 304.464844 633.277344 303.496094 632.5 302.550781 C 631.722656 301.601562 630.921875 300.675781 630.097656 299.769531 C 629.277344 298.859375 628.429688 297.972656 627.566406 297.105469 C 626.699219 296.242188 625.8125 295.394531 624.902344 294.574219 C 623.996094 293.75 623.066406 292.949219 622.121094 292.171875 C 621.175781 291.394531 620.207031 290.640625 619.222656 289.914062 C 618.242188 289.183594 617.238281 288.476562 616.21875 287.796875 C 615.203125 287.117188 614.167969 286.460938 613.117188 285.832031 C 612.066406 285.203125 611 284.597656 609.917969 284.019531 C 608.839844 283.441406 607.746094 282.890625 606.636719 282.367188 C 605.53125 281.84375 604.410156 281.347656 603.277344 280.878906 C 602.144531 280.410156 601.003906 279.96875 599.851562 279.554688 C 598.695312 279.144531 597.53125 278.757812 596.359375 278.402344 C 595.1875 278.046875 594.007812 277.722656 592.820312 277.425781 C 591.632812 277.125 590.4375 276.859375 589.234375 276.617188 C 588.03125 276.378906 586.824219 276.171875 585.613281 275.992188 C 584.402344 275.8125 583.1875 275.660156 581.96875 275.539062 C 580.75 275.421875 579.527344 275.332031 578.304688 275.269531 C 577.078125 275.210938 575.855469 275.179688 574.628906 275.179688 Z M 225.277344 225.273438 C 225.277344 222.824219 225.335938 220.375 225.457031 217.925781 C 225.578125 215.480469 225.757812 213.035156 225.996094 210.597656 C 226.238281 208.160156 226.539062 205.726562 226.898438 203.304688 C 227.257812 200.878906 227.675781 198.464844 228.152344 196.0625 C 228.632812 193.660156 229.167969 191.269531 229.761719 188.894531 C 230.359375 186.515625 231.011719 184.15625 231.722656 181.8125 C 232.433594 179.464844 233.203125 177.140625 234.027344 174.832031 C 234.855469 172.527344 235.734375 170.238281 236.671875 167.976562 C 237.609375 165.710938 238.601562 163.472656 239.652344 161.257812 C 240.699219 159.042969 241.800781 156.855469 242.957031 154.695312 C 244.109375 152.53125 245.316406 150.402344 246.578125 148.300781 C 247.835938 146.199219 249.148438 144.128906 250.507812 142.089844 C 251.871094 140.054688 253.28125 138.050781 254.742188 136.082031 C 256.199219 134.113281 257.707031 132.183594 259.261719 130.289062 C 260.816406 128.394531 262.417969 126.539062 264.0625 124.726562 C 265.707031 122.910156 267.394531 121.136719 269.128906 119.402344 C 270.863281 117.671875 272.636719 115.980469 274.453125 114.335938 C 276.265625 112.691406 278.121094 111.089844 280.015625 109.535156 C 281.910156 107.980469 283.839844 106.472656 285.808594 105.015625 C 287.777344 103.554688 289.78125 102.144531 291.816406 100.78125 C 293.855469 99.421875 295.925781 98.109375 298.027344 96.851562 C 300.128906 95.589844 302.257812 94.382812 304.421875 93.230469 C 306.582031 92.074219 308.769531 90.972656 310.984375 89.925781 C 313.199219 88.878906 315.4375 87.882812 317.703125 86.945312 C 319.964844 86.007812 322.25 85.128906 324.558594 84.300781 C 326.867188 83.476562 329.191406 82.707031 331.535156 81.996094 C 333.882812 81.285156 336.242188 80.632812 338.621094 80.035156 C 340.996094 79.441406 343.386719 78.90625 345.789062 78.425781 C 348.191406 77.949219 350.605469 77.53125 353.03125 77.171875 C 355.453125 76.8125 357.886719 76.511719 360.324219 76.269531 C 362.761719 76.03125 365.207031 75.851562 367.652344 75.730469 C 370.101562 75.609375 372.546875 75.550781 375 75.550781 C 377.449219 75.550781 379.898438 75.609375 382.34375 75.730469 C 384.792969 75.851562 387.234375 76.03125 389.675781 76.269531 C 392.113281 76.511719 394.542969 76.8125 396.96875 77.171875 C 399.390625 77.53125 401.804688 77.949219 404.207031 78.425781 C 406.613281 78.90625 409 79.441406 411.378906 80.035156 C 413.753906 80.632812 416.117188 81.285156 418.460938 81.996094 C 420.804688 82.707031 423.132812 83.476562 425.4375 84.300781 C 427.746094 85.128906 430.03125 86.007812 432.296875 86.945312 C 434.558594 87.882812 436.796875 88.878906 439.015625 89.925781 C 441.230469 90.972656 443.417969 92.074219 445.578125 93.230469 C 447.738281 94.382812 449.871094 95.589844 451.972656 96.851562 C 454.074219 98.109375 456.144531 99.421875 458.179688 100.78125 C 460.21875 102.144531 462.21875 103.554688 464.1875 105.015625 C 466.15625 106.472656 468.089844 107.980469 469.980469 109.535156 C 471.875 111.089844 473.730469 112.691406 475.546875 114.335938 C 477.363281 115.980469 479.136719 117.671875 480.871094 119.402344 C 482.601562 121.136719 484.289062 122.910156 485.9375 124.726562 C 487.582031 126.539062 489.183594 128.394531 490.738281 130.289062 C 492.289062 132.183594 493.796875 134.113281 495.257812 136.082031 C 496.71875 138.050781 498.128906 140.054688 499.488281 142.089844 C 500.851562 144.128906 502.160156 146.199219 503.421875 148.300781 C 504.679688 150.402344 505.886719 152.53125 507.042969 154.695312 C 508.199219 156.855469 509.300781 159.042969 510.347656 161.257812 C 511.394531 163.472656 512.386719 165.710938 513.324219 167.976562 C 514.261719 170.238281 515.144531 172.527344 515.96875 174.832031 C 516.796875 177.140625 517.5625 179.464844 518.273438 181.8125 C 518.984375 184.15625 519.640625 186.515625 520.234375 188.894531 C 520.832031 191.269531 521.367188 193.660156 521.84375 196.0625 C 522.324219 198.464844 522.742188 200.878906 523.101562 203.304688 C 523.460938 205.726562 523.761719 208.160156 524 210.597656 C 524.242188 213.035156 524.421875 215.480469 524.542969 217.925781 C 524.660156 220.375 524.722656 222.824219 524.722656 225.273438 L 524.722656 275.179688 L 225.277344 275.179688 Z M 399.953125 517.804688 L 399.953125 549.671875 C 399.953125 550.488281 399.914062 551.304688 399.832031 552.117188 C 399.753906 552.933594 399.632812 553.738281 399.472656 554.539062 C 399.3125 555.34375 399.117188 556.132812 398.878906 556.917969 C 398.640625 557.699219 398.367188 558.46875 398.054688 559.222656 C 397.742188 559.976562 397.390625 560.714844 397.007812 561.4375 C 396.621094 562.15625 396.203125 562.855469 395.746094 563.535156 C 395.292969 564.214844 394.808594 564.871094 394.289062 565.503906 C 393.769531 566.132812 393.222656 566.738281 392.644531 567.316406 C 392.066406 567.894531 391.460938 568.445312 390.828125 568.960938 C 390.199219 569.480469 389.542969 569.964844 388.863281 570.421875 C 388.183594 570.875 387.484375 571.292969 386.761719 571.679688 C 386.042969 572.066406 385.304688 572.414062 384.546875 572.726562 C 383.792969 573.039062 383.023438 573.316406 382.242188 573.550781 C 381.460938 573.789062 380.667969 573.988281 379.867188 574.148438 C 379.066406 574.304688 378.257812 574.425781 377.445312 574.507812 C 376.632812 574.585938 375.816406 574.625 375 574.625 C 374.183594 574.625 373.367188 574.585938 372.554688 574.507812 C 371.738281 574.425781 370.933594 574.304688 370.128906 574.148438 C 369.328125 573.988281 368.539062 573.789062 367.753906 573.550781 C 366.972656 573.316406 366.203125 573.039062 365.449219 572.726562 C 364.695312 572.414062 363.957031 572.066406 363.234375 571.679688 C 362.515625 571.292969 361.816406 570.875 361.136719 570.421875 C 360.457031 569.964844 359.800781 569.480469 359.167969 568.960938 C 358.535156 568.445312 357.933594 567.894531 357.355469 567.316406 C 356.777344 566.738281 356.226562 566.132812 355.710938 565.503906 C 355.191406 564.871094 354.703125 564.214844 354.25 563.535156 C 353.796875 562.855469 353.378906 562.15625 352.992188 561.4375 C 352.605469 560.714844 352.257812 559.976562 351.945312 559.222656 C 351.632812 558.46875 351.355469 557.699219 351.121094 556.917969 C 350.882812 556.132812 350.683594 555.34375 350.523438 554.539062 C 350.367188 553.738281 350.246094 552.933594 350.164062 552.117188 C 350.085938 551.304688 350.046875 550.488281 350.046875 549.671875 L 350.046875 517.804688 C 349.257812 517.351562 348.484375 516.878906 347.726562 516.382812 C 346.964844 515.886719 346.21875 515.371094 345.488281 514.832031 C 344.757812 514.296875 344.039062 513.738281 343.339844 513.164062 C 342.636719 512.589844 341.949219 511.996094 341.28125 511.382812 C 340.613281 510.769531 339.960938 510.136719 339.328125 509.488281 C 338.691406 508.839844 338.074219 508.175781 337.476562 507.492188 C 336.878906 506.808594 336.296875 506.109375 335.738281 505.398438 C 335.179688 504.683594 334.636719 503.953125 334.117188 503.210938 C 333.597656 502.46875 333.097656 501.710938 332.617188 500.941406 C 332.136719 500.167969 331.679688 499.386719 331.242188 498.589844 C 330.808594 497.792969 330.394531 496.988281 330 496.167969 C 329.609375 495.351562 329.238281 494.523438 328.890625 493.683594 C 328.542969 492.84375 328.21875 492 327.917969 491.140625 C 327.617188 490.285156 327.339844 489.421875 327.085938 488.550781 C 326.832031 487.679688 326.601562 486.800781 326.394531 485.917969 C 326.1875 485.035156 326.007812 484.144531 325.851562 483.25 C 325.691406 482.359375 325.558594 481.460938 325.449219 480.558594 C 325.339844 479.660156 325.257812 478.753906 325.199219 477.847656 C 325.140625 476.945312 325.105469 476.039062 325.09375 475.128906 C 325.085938 474.222656 325.097656 473.316406 325.140625 472.410156 C 325.179688 471.5 325.242188 470.597656 325.332031 469.695312 C 325.421875 468.789062 325.535156 467.890625 325.671875 466.992188 C 325.808594 466.097656 325.972656 465.203125 326.160156 464.316406 C 326.347656 463.425781 326.558594 462.542969 326.792969 461.667969 C 327.027344 460.792969 327.285156 459.921875 327.566406 459.058594 C 327.851562 458.195312 328.15625 457.34375 328.484375 456.496094 C 328.8125 455.652344 329.164062 454.816406 329.539062 453.988281 C 329.914062 453.160156 330.3125 452.34375 330.730469 451.539062 C 331.148438 450.734375 331.589844 449.941406 332.050781 449.160156 C 332.515625 448.378906 333 447.613281 333.503906 446.859375 C 334.007812 446.101562 334.53125 445.363281 335.074219 444.636719 C 335.621094 443.910156 336.183594 443.199219 336.769531 442.503906 C 337.351562 441.808594 337.953125 441.132812 338.574219 440.46875 C 339.195312 439.804688 339.832031 439.160156 340.488281 438.535156 C 341.144531 437.90625 341.816406 437.296875 342.503906 436.707031 C 343.191406 436.113281 343.898438 435.542969 344.617188 434.992188 C 345.335938 434.4375 346.070312 433.90625 346.820312 433.394531 C 347.570312 432.882812 348.332031 432.390625 349.109375 431.917969 C 349.882812 431.449219 350.671875 431 351.472656 430.570312 C 352.273438 430.144531 353.085938 429.738281 353.90625 429.351562 C 354.730469 428.96875 355.5625 428.609375 356.40625 428.269531 C 357.246094 427.933594 358.097656 427.617188 358.957031 427.324219 C 359.816406 427.035156 360.683594 426.765625 361.558594 426.523438 C 362.429688 426.277344 363.3125 426.058594 364.195312 425.859375 C 365.082031 425.664062 365.972656 425.492188 366.871094 425.34375 C 367.765625 425.195312 368.664062 425.074219 369.566406 424.972656 C 370.46875 424.875 371.371094 424.800781 372.277344 424.75 C 373.183594 424.703125 374.089844 424.675781 375 424.675781 C 375.90625 424.675781 376.8125 424.703125 377.71875 424.75 C 378.625 424.800781 379.53125 424.875 380.433594 424.972656 C 381.335938 425.074219 382.234375 425.195312 383.128906 425.34375 C 384.023438 425.492188 384.914062 425.664062 385.800781 425.859375 C 386.6875 426.058594 387.566406 426.277344 388.441406 426.523438 C 389.316406 426.765625 390.183594 427.035156 391.042969 427.328125 C 391.902344 427.617188 392.75 427.933594 393.59375 428.269531 C 394.4375 428.609375 395.269531 428.96875 396.089844 429.355469 C 396.914062 429.738281 397.726562 430.144531 398.527344 430.570312 C 399.324219 431 400.113281 431.449219 400.890625 431.917969 C 401.664062 432.390625 402.429688 432.882812 403.175781 433.394531 C 403.925781 433.90625 404.660156 434.4375 405.382812 434.992188 C 406.101562 435.542969 406.804688 436.113281 407.496094 436.707031 C 408.183594 437.296875 408.855469 437.90625 409.511719 438.535156 C 410.167969 439.160156 410.804688 439.804688 411.425781 440.46875 C 412.046875 441.132812 412.648438 441.808594 413.230469 442.503906 C 413.8125 443.199219 414.378906 443.910156 414.921875 444.636719 C 415.46875 445.363281 415.992188 446.101562 416.496094 446.859375 C 417 447.613281 417.484375 448.378906 417.945312 449.160156 C 418.40625 449.941406 418.847656 450.734375 419.269531 451.539062 C 419.6875 452.34375 420.082031 453.160156 420.457031 453.988281 C 420.832031 454.816406 421.183594 455.652344 421.511719 456.496094 C 421.84375 457.34375 422.148438 458.195312 422.429688 459.058594 C 422.710938 459.921875 422.972656 460.792969 423.207031 461.667969 C 423.441406 462.542969 423.652344 463.425781 423.839844 464.316406 C 424.027344 465.203125 424.1875 466.097656 424.324219 466.992188 C 424.464844 467.890625 424.578125 468.789062 424.667969 469.695312 C 424.753906 470.597656 424.820312 471.5 424.859375 472.410156 C 424.898438 473.316406 424.914062 474.222656 424.902344 475.128906 C 424.894531 476.039062 424.859375 476.945312 424.800781 477.847656 C 424.742188 478.753906 424.65625 479.660156 424.546875 480.558594 C 424.4375 481.460938 424.304688 482.359375 424.148438 483.25 C 423.992188 484.144531 423.808594 485.035156 423.601562 485.917969 C 423.398438 486.800781 423.167969 487.679688 422.914062 488.550781 C 422.660156 489.421875 422.382812 490.285156 422.082031 491.140625 C 421.777344 492 421.453125 492.84375 421.109375 493.683594 C 420.761719 494.523438 420.390625 495.351562 419.996094 496.167969 C 419.605469 496.988281 419.191406 497.792969 418.753906 498.589844 C 418.316406 499.386719 417.859375 500.167969 417.378906 500.941406 C 416.902344 501.710938 416.402344 502.46875 415.882812 503.210938 C 415.359375 503.953125 414.820312 504.683594 414.261719 505.398438 C 413.699219 506.109375 413.121094 506.808594 412.523438 507.492188 C 411.921875 508.175781 411.308594 508.839844 410.671875 509.488281 C 410.039062 510.136719 409.386719 510.769531 408.714844 511.382812 C 408.046875 511.996094 407.363281 512.589844 406.660156 513.164062 C 405.957031 513.738281 405.242188 514.296875 404.511719 514.832031 C 403.777344 515.371094 403.03125 515.886719 402.273438 516.382812 C 401.511719 516.878906 400.738281 517.351562 399.953125 517.804688 Z M 399.953125 517.804688 " fill-opacity="1" fill-rule="nonzero"/></g></svg>