<svg xmlns="http://www.w3.org/2000/svg" xmlns:xlink="http://www.w3.org/1999/xlink" width="1000" zoomAndPan="magnify" viewBox="0 0 750 749.999995" height="1000" preserveAspectRatio="xMidYMid meet" version="1.0"><path fill="#9f9f9f" d="M 560.183594 214.007812 C 560.183594 217.109375 560.105469 220.210938 559.953125 223.3125 C 559.800781 226.414062 559.574219 229.507812 559.269531 232.597656 C 558.964844 235.6875 558.585938 238.765625 558.128906 241.835938 C 557.675781 244.90625 557.144531 247.964844 556.539062 251.007812 C 555.933594 254.050781 555.253906 257.078125 554.5 260.089844 C 553.746094 263.101562 552.917969 266.09375 552.015625 269.0625 C 551.113281 272.035156 550.140625 274.980469 549.09375 277.902344 C 548.050781 280.824219 546.933594 283.71875 545.746094 286.589844 C 544.558594 289.457031 543.300781 292.292969 541.972656 295.097656 C 540.644531 297.90625 539.25 300.675781 537.789062 303.414062 C 536.324219 306.152344 534.792969 308.851562 533.199219 311.511719 C 531.601562 314.175781 529.941406 316.796875 528.21875 319.378906 C 526.492188 321.960938 524.707031 324.496094 522.859375 326.988281 C 521.007812 329.484375 519.101562 331.929688 517.128906 334.328125 C 515.160156 336.726562 513.132812 339.078125 511.050781 341.378906 C 508.964844 343.675781 506.824219 345.925781 504.628906 348.121094 C 502.4375 350.316406 500.1875 352.453125 497.886719 354.539062 C 495.589844 356.625 493.238281 358.652344 490.839844 360.621094 C 488.441406 362.589844 485.992188 364.496094 483.5 366.347656 C 481.007812 368.195312 478.46875 369.984375 475.890625 371.707031 C 473.308594 373.433594 470.6875 375.09375 468.023438 376.6875 C 465.363281 378.285156 462.664062 379.8125 459.925781 381.277344 C 457.1875 382.738281 454.414062 384.132812 451.609375 385.460938 C 448.804688 386.789062 445.964844 388.046875 443.097656 389.234375 C 440.230469 390.421875 437.335938 391.539062 434.414062 392.585938 C 431.492188 393.628906 428.542969 394.605469 425.574219 395.503906 C 422.605469 396.40625 419.613281 397.234375 416.601562 397.988281 C 413.589844 398.742188 410.5625 399.421875 407.519531 400.027344 C 404.472656 400.632812 401.417969 401.164062 398.347656 401.617188 C 395.277344 402.074219 392.195312 402.453125 389.109375 402.757812 C 386.019531 403.0625 382.921875 403.292969 379.824219 403.441406 C 376.722656 403.59375 373.621094 403.671875 370.515625 403.671875 C 367.414062 403.671875 364.3125 403.59375 361.210938 403.441406 C 358.109375 403.292969 355.015625 403.0625 351.925781 402.757812 C 348.835938 402.453125 345.757812 402.074219 342.6875 401.617188 C 339.617188 401.164062 336.558594 400.632812 333.515625 400.027344 C 330.46875 399.421875 327.441406 398.742188 324.433594 397.988281 C 321.421875 397.234375 318.429688 396.40625 315.460938 395.503906 C 312.488281 394.605469 309.542969 393.628906 306.621094 392.585938 C 303.699219 391.539062 300.804688 390.421875 297.933594 389.234375 C 295.066406 388.046875 292.230469 386.789062 289.425781 385.460938 C 286.617188 384.132812 283.847656 382.738281 281.109375 381.277344 C 278.371094 379.8125 275.671875 378.285156 273.007812 376.6875 C 270.347656 375.09375 267.726562 373.433594 265.144531 371.707031 C 262.5625 369.984375 260.027344 368.195312 257.535156 366.347656 C 255.039062 364.496094 252.59375 362.589844 250.195312 360.621094 C 247.792969 358.652344 245.445312 356.625 243.144531 354.539062 C 240.84375 352.453125 238.597656 350.316406 236.402344 348.121094 C 234.207031 345.925781 232.070312 343.675781 229.984375 341.378906 C 227.898438 339.078125 225.871094 336.726562 223.902344 334.328125 C 221.933594 331.929688 220.023438 329.484375 218.175781 326.988281 C 216.328125 324.496094 214.539062 321.960938 212.816406 319.378906 C 211.089844 316.796875 209.429688 314.175781 207.835938 311.511719 C 206.238281 308.851562 204.710938 306.152344 203.246094 303.414062 C 201.785156 300.675781 200.386719 297.90625 199.0625 295.097656 C 197.734375 292.292969 196.476562 289.457031 195.289062 286.589844 C 194.101562 283.71875 192.984375 280.824219 191.9375 277.902344 C 190.894531 274.980469 189.917969 272.035156 189.019531 269.0625 C 188.117188 266.09375 187.289062 263.101562 186.535156 260.089844 C 185.78125 257.078125 185.101562 254.050781 184.496094 251.007812 C 183.890625 247.964844 183.359375 244.90625 182.902344 241.835938 C 182.449219 238.765625 182.070312 235.6875 181.765625 232.597656 C 181.460938 229.507812 181.230469 226.414062 181.078125 223.3125 C 180.925781 220.210938 180.851562 217.109375 180.851562 214.007812 C 180.851562 210.902344 180.925781 207.800781 181.078125 204.699219 C 181.230469 201.597656 181.460938 198.503906 181.765625 195.414062 C 182.070312 192.328125 182.449219 189.246094 182.902344 186.175781 C 183.359375 183.105469 183.890625 180.046875 184.496094 177.003906 C 185.101562 173.960938 185.78125 170.933594 186.535156 167.921875 C 187.289062 164.910156 188.117188 161.917969 189.019531 158.949219 C 189.917969 155.980469 190.894531 153.03125 191.9375 150.109375 C 192.984375 147.1875 194.101562 144.292969 195.289062 141.425781 C 196.476562 138.554688 197.734375 135.71875 199.0625 132.914062 C 200.386719 130.109375 201.785156 127.335938 203.246094 124.597656 C 204.710938 121.859375 206.238281 119.160156 207.835938 116.5 C 209.429688 113.835938 211.089844 111.214844 212.816406 108.632812 C 214.539062 106.050781 216.328125 103.515625 218.175781 101.023438 C 220.023438 98.527344 221.933594 96.082031 223.902344 93.683594 C 225.871094 91.285156 227.898438 88.933594 229.984375 86.632812 C 232.070312 84.335938 234.207031 82.085938 236.402344 79.890625 C 238.597656 77.699219 240.84375 75.558594 243.144531 73.472656 C 245.445312 71.386719 247.792969 69.363281 250.195312 67.390625 C 252.59375 65.421875 255.039062 63.515625 257.535156 61.664062 C 260.027344 59.816406 262.5625 58.027344 265.144531 56.304688 C 267.726562 54.582031 270.347656 52.921875 273.007812 51.324219 C 275.671875 49.730469 278.371094 48.199219 281.109375 46.734375 C 283.847656 45.273438 286.617188 43.878906 289.425781 42.550781 C 292.230469 41.222656 295.066406 39.964844 297.933594 38.777344 C 300.804688 37.589844 303.699219 36.472656 306.621094 35.425781 C 309.542969 34.382812 312.488281 33.410156 315.460938 32.507812 C 318.429688 31.605469 321.421875 30.777344 324.433594 30.023438 C 327.441406 29.269531 330.46875 28.589844 333.515625 27.984375 C 336.558594 27.378906 339.617188 26.847656 342.6875 26.394531 C 345.757812 25.9375 348.835938 25.558594 351.925781 25.253906 C 355.015625 24.949219 358.109375 24.722656 361.210938 24.570312 C 364.3125 24.417969 367.414062 24.339844 370.515625 24.339844 C 373.621094 24.339844 376.722656 24.417969 379.824219 24.570312 C 382.921875 24.722656 386.019531 24.949219 389.109375 25.253906 C 392.195312 25.558594 395.277344 25.9375 398.347656 26.394531 C 401.417969 26.847656 404.472656 27.378906 407.519531 27.984375 C 410.5625 28.589844 413.589844 29.269531 416.601562 30.023438 C 419.613281 30.777344 422.605469 31.605469 425.574219 32.507812 C 428.542969 33.410156 431.492188 34.382812 434.414062 35.425781 C 437.335938 36.472656 440.230469 37.589844 443.097656 38.777344 C 445.964844 39.964844 448.804688 41.222656 451.609375 42.550781 C 454.414062 43.878906 457.1875 45.273438 459.925781 46.734375 C 462.664062 48.199219 465.363281 49.730469 468.023438 51.324219 C 470.6875 52.921875 473.308594 54.582031 475.890625 56.304688 C 478.46875 58.027344 481.007812 59.816406 483.5 61.664062 C 485.992188 63.515625 488.441406 65.421875 490.839844 67.390625 C 493.238281 69.363281 495.589844 71.386719 497.886719 73.472656 C 500.1875 75.558594 502.4375 77.699219 504.628906 79.890625 C 506.824219 82.085938 508.964844 84.335938 511.050781 86.632812 C 513.132812 88.933594 515.160156 91.285156 517.128906 93.683594 C 519.101562 96.082031 521.007812 98.527344 522.859375 101.023438 C 524.707031 103.515625 526.492188 106.050781 528.21875 108.632812 C 529.941406 111.214844 531.601562 113.835938 533.199219 116.5 C 534.792969 119.160156 536.324219 121.859375 537.789062 124.597656 C 539.25 127.335938 540.644531 130.109375 541.972656 132.914062 C 543.300781 135.71875 544.558594 138.554688 545.746094 141.425781 C 546.933594 144.292969 548.050781 147.1875 549.09375 150.109375 C 550.140625 153.03125 551.113281 155.980469 552.015625 158.949219 C 552.917969 161.917969 553.746094 164.910156 554.5 167.921875 C 555.253906 170.933594 555.933594 173.960938 556.539062 177.003906 C 557.144531 180.046875 557.675781 183.105469 558.128906 186.175781 C 558.585938 189.246094 558.964844 192.328125 559.269531 195.414062 C 559.574219 198.503906 559.800781 201.597656 559.953125 204.699219 C 560.105469 207.800781 560.183594 210.902344 560.183594 214.007812 Z M 560.183594 214.007812 " fill-opacity="1" fill-rule="nonzero"/><path fill="#9f9f9f" d="M 115.617188 746.292969 L 625.414062 746.292969 C 627.265625 746.273438 629.113281 746.195312 630.957031 746.066406 C 632.800781 745.933594 634.640625 745.75 636.472656 745.507812 C 638.308594 745.265625 640.132812 744.96875 641.949219 744.617188 C 643.761719 744.265625 645.566406 743.863281 647.359375 743.402344 C 649.148438 742.945312 650.925781 742.433594 652.6875 741.867188 C 654.449219 741.300781 656.191406 740.683594 657.914062 740.011719 C 659.636719 739.34375 661.339844 738.621094 663.019531 737.851562 C 664.699219 737.078125 666.355469 736.257812 667.988281 735.386719 C 669.621094 734.515625 671.222656 733.597656 672.800781 732.628906 C 674.375 731.660156 675.921875 730.648438 677.4375 729.589844 C 678.953125 728.527344 680.433594 727.425781 681.882812 726.277344 C 683.335938 725.128906 684.746094 723.9375 686.125 722.703125 C 687.503906 721.46875 688.84375 720.195312 690.144531 718.882812 C 691.445312 717.566406 692.707031 716.21875 693.929688 714.828125 C 695.148438 713.4375 696.328125 712.015625 697.464844 710.554688 C 698.597656 709.09375 699.6875 707.601562 700.734375 706.078125 C 701.78125 704.550781 702.78125 702.996094 703.730469 701.410156 C 704.683594 699.824219 705.589844 698.214844 706.445312 696.574219 C 707.300781 694.933594 708.109375 693.269531 708.863281 691.582031 C 709.621094 689.894531 710.324219 688.1875 710.980469 686.457031 C 711.632812 684.726562 712.234375 682.980469 712.785156 681.214844 C 713.332031 679.449219 713.828125 677.667969 714.273438 675.871094 C 714.714844 674.074219 715.101562 672.269531 715.4375 670.449219 C 715.769531 668.628906 716.050781 666.804688 716.273438 664.96875 C 716.5 663.132812 716.667969 661.292969 716.785156 659.445312 C 716.898438 657.601562 716.957031 655.753906 716.960938 653.902344 C 716.964844 652.054688 716.914062 650.207031 716.804688 648.359375 C 716.699219 646.511719 716.535156 644.671875 716.320312 642.835938 C 716.101562 641 715.828125 639.171875 715.5 637.351562 C 715.175781 635.53125 714.792969 633.722656 714.359375 631.921875 C 713.921875 630.125 713.433594 628.34375 712.890625 626.574219 C 712.347656 624.808594 711.753906 623.058594 711.109375 621.324219 C 709.792969 618.003906 708.417969 614.707031 706.984375 611.4375 C 705.546875 608.167969 704.050781 604.925781 702.492188 601.710938 C 700.933594 598.5 699.316406 595.316406 697.640625 592.164062 C 695.960938 589.007812 694.226562 585.890625 692.433594 582.800781 C 690.640625 579.710938 688.789062 576.660156 686.878906 573.640625 C 684.972656 570.621094 683.007812 567.640625 680.988281 564.695312 C 678.96875 561.75 676.894531 558.839844 674.765625 555.972656 C 672.636719 553.105469 670.457031 550.28125 668.21875 547.492188 C 665.984375 544.707031 663.699219 541.964844 661.363281 539.265625 C 659.027344 536.5625 656.640625 533.90625 654.203125 531.296875 C 651.765625 528.683594 649.28125 526.121094 646.746094 523.601562 C 644.214844 521.085938 641.636719 518.617188 639.011719 516.195312 C 636.386719 513.773438 633.714844 511.402344 631.003906 509.078125 C 628.289062 506.757812 625.53125 504.488281 622.734375 502.269531 C 619.933594 500.050781 617.09375 497.886719 614.214844 495.773438 C 611.335938 493.664062 608.414062 491.605469 605.460938 489.601562 C 602.5 487.601562 599.507812 485.652344 596.476562 483.761719 C 593.449219 481.871094 590.382812 480.039062 587.285156 478.261719 C 584.1875 476.488281 581.054688 474.769531 577.894531 473.109375 C 574.730469 471.453125 571.539062 469.855469 568.316406 468.316406 C 565.09375 466.773438 561.84375 465.296875 558.5625 463.878906 C 555.285156 462.460938 551.980469 461.105469 548.652344 459.8125 C 545.324219 458.519531 541.972656 457.289062 538.597656 456.121094 C 535.222656 454.953125 531.828125 453.847656 528.410156 452.804688 C 524.996094 451.765625 521.558594 450.789062 518.105469 449.875 C 514.652344 448.964844 511.183594 448.117188 507.699219 447.332031 C 504.214844 446.550781 500.71875 445.832031 497.207031 445.183594 C 493.695312 444.53125 490.171875 443.945312 486.640625 443.425781 C 483.105469 442.90625 479.5625 442.453125 476.015625 442.066406 C 472.464844 441.679688 468.90625 441.355469 465.34375 441.105469 C 461.78125 440.847656 458.214844 440.664062 454.648438 440.542969 C 451.078125 440.421875 447.507812 440.367188 443.9375 440.382812 L 297.097656 440.382812 C 293.527344 440.378906 289.960938 440.445312 286.394531 440.578125 C 282.828125 440.710938 279.265625 440.910156 275.707031 441.171875 C 272.148438 441.4375 268.59375 441.769531 265.046875 442.164062 C 261.503906 442.5625 257.964844 443.027344 254.433594 443.554688 C 250.90625 444.082031 247.386719 444.675781 243.878906 445.335938 C 240.371094 445.996094 236.878906 446.71875 233.398438 447.511719 C 229.917969 448.300781 226.453125 449.152344 223.003906 450.074219 C 219.554688 450.992188 216.125 451.972656 212.714844 453.019531 C 209.300781 454.066406 205.910156 455.175781 202.539062 456.347656 C 199.167969 457.519531 195.820312 458.753906 192.496094 460.050781 C 189.171875 461.351562 185.871094 462.707031 182.597656 464.128906 C 179.324219 465.546875 176.078125 467.027344 172.859375 468.570312 C 169.640625 470.109375 166.449219 471.710938 163.289062 473.371094 C 160.132812 475.03125 157.003906 476.746094 153.90625 478.523438 C 150.8125 480.300781 147.75 482.132812 144.722656 484.023438 C 141.695312 485.910156 138.707031 487.855469 135.75 489.859375 C 132.796875 491.859375 129.878906 493.914062 127 496.023438 C 124.121094 498.132812 121.285156 500.296875 118.484375 502.511719 C 115.6875 504.726562 112.933594 506.996094 110.21875 509.3125 C 107.503906 511.632812 104.835938 514 102.210938 516.414062 C 99.585938 518.832031 97.003906 521.296875 94.472656 523.8125 C 91.9375 526.324219 89.453125 528.886719 87.015625 531.492188 C 84.574219 534.097656 82.1875 536.746094 79.847656 539.441406 C 77.507812 542.136719 75.21875 544.875 72.980469 547.65625 C 70.742188 550.433594 68.558594 553.253906 66.425781 556.117188 C 64.292969 558.976562 62.214844 561.878906 60.1875 564.816406 C 58.164062 567.753906 56.195312 570.730469 54.28125 573.742188 C 52.367188 576.753906 50.507812 579.800781 48.707031 582.882812 C 46.90625 585.964844 45.164062 589.078125 43.480469 592.222656 C 41.792969 595.371094 40.167969 598.546875 38.601562 601.753906 C 37.035156 604.960938 35.53125 608.195312 34.082031 611.457031 C 32.636719 614.71875 31.253906 618.007812 29.929688 621.324219 C 29.28125 623.054688 28.6875 624.804688 28.144531 626.574219 C 27.601562 628.339844 27.109375 630.125 26.675781 631.921875 C 26.238281 633.71875 25.859375 635.527344 25.53125 637.347656 C 25.203125 639.167969 24.929688 640.996094 24.710938 642.832031 C 24.496094 644.671875 24.332031 646.511719 24.226562 648.359375 C 24.117188 650.203125 24.066406 652.050781 24.070312 653.902344 C 24.070312 655.75 24.128906 657.597656 24.246094 659.445312 C 24.359375 661.289062 24.527344 663.132812 24.753906 664.96875 C 24.976562 666.804688 25.257812 668.632812 25.589844 670.449219 C 25.925781 672.269531 26.3125 674.078125 26.753906 675.871094 C 27.195312 677.667969 27.691406 679.449219 28.242188 681.214844 C 28.789062 682.980469 29.390625 684.730469 30.046875 686.460938 C 30.699219 688.191406 31.40625 689.898438 32.160156 691.585938 C 32.917969 693.273438 33.722656 694.9375 34.578125 696.578125 C 35.4375 698.21875 36.339844 699.828125 37.292969 701.414062 C 38.246094 703 39.246094 704.554688 40.289062 706.082031 C 41.335938 707.605469 42.425781 709.097656 43.5625 710.558594 C 44.699219 712.019531 45.875 713.441406 47.097656 714.832031 C 48.316406 716.222656 49.578125 717.574219 50.882812 718.886719 C 52.183594 720.203125 53.523438 721.476562 54.902344 722.707031 C 56.277344 723.941406 57.691406 725.132812 59.140625 726.28125 C 60.59375 727.429688 62.074219 728.535156 63.589844 729.59375 C 65.105469 730.652344 66.652344 731.667969 68.230469 732.636719 C 69.804688 733.601562 71.410156 734.519531 73.039062 735.390625 C 74.671875 736.261719 76.328125 737.085938 78.007812 737.855469 C 79.691406 738.628906 81.390625 739.347656 83.117188 740.019531 C 84.839844 740.6875 86.582031 741.304688 88.34375 741.871094 C 90.105469 742.4375 91.882812 742.949219 93.671875 743.40625 C 95.464844 743.867188 97.269531 744.269531 99.085938 744.621094 C 100.902344 744.972656 102.726562 745.265625 104.558594 745.507812 C 106.394531 745.75 108.230469 745.9375 110.078125 746.066406 C 111.921875 746.199219 113.769531 746.273438 115.617188 746.292969 Z M 115.617188 746.292969 " fill-opacity="1" fill-rule="nonzero"/></svg>